<svg width="127" height="32" viewBox="0 0 127 32" fill="none" xmlns="http://www.w3.org/2000/svg">
<path d="M12.832 0.640017H18.208C18.176 2.11202 18.112 3.93602 17.952 5.98402C18.432 10.528 20.448 21.824 31.52 26.752C30.08 27.872 28.768 29.472 28.096 30.784C21.376 27.552 17.792 21.92 15.84 16.704C14.016 21.952 10.656 27.232 4.54401 31.008C3.71201 29.76 2.20801 28.256 0.640015 27.2C13.504 20.064 12.672 6.40002 12.832 0.640017Z" fill="#22A9E7"/>
<path d="M48.704 7.13602H61.536C61.536 7.13602 61.504 8.67202 61.44 9.28002C60.832 21.856 60.224 26.752 58.784 28.512C57.728 29.888 56.704 30.304 55.2 30.528C53.952 30.752 51.968 30.752 50.048 30.688C49.984 29.312 49.312 27.2 48.416 25.856C50.368 26.016 52.16 26.016 53.056 26.016C53.696 26.016 54.08 25.888 54.528 25.472C55.456 24.544 56.064 20.512 56.512 11.904H48.544C48.032 18.56 45.728 26.432 36.896 31.232C36.128 30.08 34.368 28.256 33.216 27.424C40.8 23.584 42.976 17.28 43.552 11.904H34.272V7.13602H43.744V0.704016H48.704V7.13602Z" fill="#22A9E7"/>
<path d="M83.648 24.928L86.976 24.064C86.016 21.984 85.312 19.584 84.736 16.96H83.648V24.928ZM77.92 23.488L78.304 26.976C78.784 26.624 79.168 26.112 79.168 25.12V7.36002L76.704 10.272L76.448 9.98402V12.576H73.92V14.208H78.016V18.208H73.92V22.688C74.208 21.344 74.528 19.712 74.656 18.496L77.984 19.296C77.472 20.864 76.96 22.528 76.544 23.776L77.92 23.488ZM73.92 23.712V24.32L75.168 24.064L73.92 23.712ZM70.304 8.67202H75.232C74.432 7.84002 73.44 6.91202 72.512 6.08002C71.808 6.97602 71.072 7.84002 70.304 8.67202ZM89.952 5.79202H83.648V7.52002H89.952V5.79202ZM83.648 11.232V12.992H89.952V11.232H83.648ZM92.128 16.96H88.704C88.928 17.824 89.216 18.624 89.536 19.424C90.496 18.624 91.456 17.728 92.128 16.96ZM92.256 16.96L95.168 20.192C93.952 21.12 92.576 22.112 91.392 22.88C92.512 24.48 93.92 25.792 95.648 26.688C94.624 27.584 93.184 29.44 92.512 30.688C90.144 29.184 88.416 27.04 87.136 24.384C87.168 25.6 87.36 27.2 87.52 28.096C81.408 29.952 80.128 30.528 79.328 31.104C79.136 30.08 78.592 28.416 78.048 27.456C73.888 28.576 69.504 29.664 66.08 30.528L65.024 26.048C66.4 25.824 68.064 25.504 69.92 25.12V24.416L67.104 25.216C66.976 23.744 66.464 21.472 65.984 19.744L68.928 18.944C69.28 20.096 69.664 21.472 69.92 22.688V18.208H65.76V14.208H69.92V12.576H67.488V11.36C67.136 11.68 66.752 11.968 66.4 12.224C66.144 11.232 65.216 8.73602 64.64 7.61602C67.168 5.92002 69.888 3.23202 71.456 0.416016L75.232 1.88802C75.072 2.17602 74.912 2.46402 74.752 2.75202C76.416 4.06402 78.112 5.56802 79.168 6.68802V1.82402H94.464V16.96H92.256Z" fill="#22A9E7"/>
<path d="M126.08 2.40002V6.81602H110.496V2.40002H126.08ZM103.904 0.640017L108.384 2.49602C105.952 5.66402 102.4 9.08802 99.232 11.264C98.656 10.208 97.472 8.35202 96.672 7.42402C99.328 5.76002 102.4 2.84802 103.904 0.640017ZM105.088 7.68002L109.504 9.37602C108.576 10.976 107.424 12.64 106.176 14.24V31.04H101.504V19.488C100.8 20.128 100.128 20.768 99.456 21.312C98.816 20.32 97.248 18.208 96.32 17.248C99.552 15.008 103.04 11.296 105.088 7.68002ZM126.88 11.296V15.712H122.688V25.824C122.688 28.192 122.272 29.472 120.672 30.176C119.136 30.88 116.992 30.944 114.272 30.944C114.112 29.568 113.504 27.52 112.896 26.176C114.464 26.272 116.576 26.272 117.152 26.272C117.728 26.272 117.92 26.144 117.92 25.696V15.712H109.152V11.296H126.88Z" fill="#22A9E7"/>
</svg>
