<svg width="127" height="31" viewBox="0 0 127 31" fill="none" xmlns="http://www.w3.org/2000/svg">
<path d="M12.192 0.224001H17.568C17.536 1.696 17.472 3.52 17.312 5.568C17.792 10.112 19.808 21.408 30.88 26.336C29.44 27.456 28.128 29.056 27.456 30.368C20.736 27.136 17.152 21.504 15.2 16.288C13.376 21.536 10.016 26.816 3.904 30.592C3.072 29.344 1.568 27.84 0 26.784C12.864 19.648 12.032 5.984 12.192 0.224001Z" fill="#FFD2A8"/>
<path d="M48.064 6.72H60.896C60.896 6.72 60.864 8.256 60.8 8.864C60.192 21.44 59.584 26.336 58.144 28.096C57.088 29.472 56.064 29.888 54.56 30.112C53.312 30.336 51.328 30.336 49.408 30.272C49.344 28.896 48.672 26.784 47.776 25.44C49.728 25.6 51.52 25.6 52.416 25.6C53.056 25.6 53.44 25.472 53.888 25.056C54.816 24.128 55.424 20.096 55.872 11.488H47.904C47.392 18.144 45.088 26.016 36.256 30.816C35.488 29.664 33.728 27.84 32.576 27.008C40.16 23.168 42.336 16.864 42.912 11.488H33.632V6.72H43.104V0.288H48.064V6.72Z" fill="#FFD2A8"/>
<path d="M83.008 24.512L86.336 23.648C85.376 21.568 84.672 19.168 84.096 16.544H83.008V24.512ZM77.28 23.072L77.664 26.56C78.144 26.208 78.528 25.696 78.528 24.704V6.944L76.064 9.856L75.808 9.568V12.16H73.28V13.792H77.376V17.792H73.28V22.272C73.568 20.928 73.888 19.296 74.016 18.08L77.344 18.88C76.832 20.448 76.32 22.112 75.904 23.36L77.28 23.072ZM73.28 23.296V23.904L74.528 23.648L73.28 23.296ZM69.664 8.256H74.592C73.792 7.424 72.8 6.496 71.872 5.664C71.168 6.56 70.432 7.424 69.664 8.256ZM89.312 5.376H83.008V7.104H89.312V5.376ZM83.008 10.816V12.576H89.312V10.816H83.008ZM91.488 16.544H88.064C88.288 17.408 88.576 18.208 88.896 19.008C89.856 18.208 90.816 17.312 91.488 16.544ZM91.616 16.544L94.528 19.776C93.312 20.704 91.936 21.696 90.752 22.464C91.872 24.064 93.28 25.376 95.008 26.272C93.984 27.168 92.544 29.024 91.872 30.272C89.504 28.768 87.776 26.624 86.496 23.968C86.528 25.184 86.72 26.784 86.88 27.68C80.768 29.536 79.488 30.112 78.688 30.688C78.496 29.664 77.952 28 77.408 27.04C73.248 28.16 68.864 29.248 65.44 30.112L64.384 25.632C65.76 25.408 67.424 25.088 69.28 24.704V24L66.464 24.8C66.336 23.328 65.824 21.056 65.344 19.328L68.288 18.528C68.64 19.68 69.024 21.056 69.28 22.272V17.792H65.12V13.792H69.28V12.16H66.848V10.944C66.496 11.264 66.112 11.552 65.76 11.808C65.504 10.816 64.576 8.32 64 7.2C66.528 5.504 69.248 2.816 70.816 0L74.592 1.472C74.432 1.76 74.272 2.048 74.112 2.336C75.776 3.648 77.472 5.152 78.528 6.272V1.408H93.824V16.544H91.616Z" fill="#FFD2A8"/>
<path d="M125.44 1.984V6.4H109.856V1.984H125.44ZM103.264 0.224001L107.744 2.08C105.312 5.248 101.76 8.672 98.592 10.848C98.016 9.792 96.832 7.936 96.032 7.008C98.688 5.344 101.76 2.432 103.264 0.224001ZM104.448 7.264L108.864 8.96C107.936 10.56 106.784 12.224 105.536 13.824V30.624H100.864V19.072C100.16 19.712 99.488 20.352 98.816 20.896C98.176 19.904 96.608 17.792 95.68 16.832C98.912 14.592 102.4 10.88 104.448 7.264ZM126.24 10.88V15.296H122.048V25.408C122.048 27.776 121.632 29.056 120.032 29.76C118.496 30.464 116.352 30.528 113.632 30.528C113.472 29.152 112.864 27.104 112.256 25.76C113.824 25.856 115.936 25.856 116.512 25.856C117.088 25.856 117.28 25.728 117.28 25.28V15.296H108.512V10.88H126.24Z" fill="#FFD2A8"/>
</svg>
