<svg width="24" height="24" viewBox="0 0 24 24" fill="none" xmlns="http://www.w3.org/2000/svg">
<path fill-rule="evenodd" clip-rule="evenodd" d="M18.6789 5.32122C19.0538 5.69612 19.0538 6.30396 18.6789 6.67886L6.67886 18.6789C6.30396 19.0538 5.69612 19.0538 5.32122 18.6789C4.94631 18.304 4.94631 17.6961 5.32122 17.3212L17.3212 5.32122C17.6961 4.94631 18.304 4.94631 18.6789 5.32122Z" fill="#BABABA"/>
<path fill-rule="evenodd" clip-rule="evenodd" d="M5.32122 5.32122C5.69612 4.94631 6.30396 4.94631 6.67886 5.32122L18.6789 17.3212C19.0538 17.6961 19.0538 18.304 18.6789 18.6789C18.304 19.0538 17.6961 19.0538 17.3212 18.6789L5.32122 6.67886C4.94631 6.30396 4.94631 5.69612 5.32122 5.32122Z" fill="#BABABA"/>
</svg>
