<?xml version="1.0" encoding="UTF-8"?><svg id="_圖層_2" xmlns="http://www.w3.org/2000/svg" viewBox="0 0 15.85 15.85"><defs><style>.cls-1{fill:#7f93bc;}</style></defs><g id="_x30_1精選文章"><path class="cls-1" d="M8.58,4.62c0,.36-.3.66-.66.66s-.66-.3-.66-.66.29-.66.66-.66.66.3.66.66M15.85,12.87v-4.72C15.85,3.87,12.61.3,8.48.02,6.18-.14,3.93.7,2.32,2.32.7,3.95-.14,6.19.02,8.49c.29,4.19,4.01,7.36,8.65,7.36h4.2c1.64,0,2.97-1.33,2.97-2.97M8.43.68c3.79.26,6.75,3.54,6.75,7.48v4.72c0,1.28-1.04,2.31-2.31,2.31h-4.2c-4.36,0-7.72-2.84-7.99-6.74-.14-2.1.62-4.16,2.11-5.65C4.15,1.42,6.01.66,7.93.66c.17,0,.33,0,.5.02ZM8.58,12.21v-4.62c0-.55-.45-.99-.99-.99h-.66c-.18,0-.33.15-.33.33s.15.33.33.33h.66c.18,0,.33.15.33.33v4.62c0,.18.15.33.33.33s.33-.15.33-.33"/></g></svg>