<?xml version="1.0" encoding="UTF-8"?><svg id="_圖層_2" xmlns="http://www.w3.org/2000/svg" viewBox="0 0 7.29 12.69"><defs><style>.cls-1{fill:#9684bb;}</style></defs><g id="_x30_6管理資金_xFF3F_提取"><path class="cls-1" d="M5.11,6.28s-.09-.09-.19-.18C3.39,4.67,2.38,3.64.35,1.58c-.07-.07-.23-.24-.28-.49-.03-.13-.02-.28.02-.43C.19.32.42.1.77.02c.35-.08.64.04.89.29,1.25,1.25,2.5,2.5,3.75,3.76.51.51,1.02,1.01,1.52,1.52.47.47.47.98,0,1.46-1.77,1.77-3.54,3.54-5.31,5.31-.34.34-.73.42-1.1.24-.58-.28-.7-1.01-.23-1.49.71-.72,1.44-1.44,2.16-2.16l2.49-2.49s.09-.09.18-.19"/></g></svg>