<?xml version="1.0" encoding="UTF-8"?><svg id="_圖層_2" xmlns="http://www.w3.org/2000/svg" viewBox="0 0 30 30"><defs><style>.cls-1{fill:none;}.cls-2{fill:#9684bb;}</style></defs><g id="_x30_1精選文章"><path class="cls-2" d="M15.28.74c.45.1.89.23,1.27.52.71.55,1.04,1.28,1.04,2.17,0,.23.09.31.29.38,3.35,1.23,5.38,3.6,6.06,7.1.11.55.11,1.12.13,1.69.06,1.47.06,2.95.18,4.42.12,1.43.58,2.77,1.39,3.98.24.36.48.73.68,1.11.67,1.23.35,2.28-.87,2.95-.98.54-2.04.83-3.14,1-1.13.18-2.28.3-3.42.44-.16.02-.24.07-.3.22-.51,1.3-1.45,2.11-2.82,2.43-1.45.34-3.21-.37-3.99-1.64-.15-.25-.29-.52-.4-.79-.06-.15-.14-.2-.3-.22-1.5-.12-2.99-.29-4.45-.66-.81-.2-1.6-.46-2.31-.92-1.07-.68-1.24-1.6-.69-2.75.18-.37.4-.71.63-1.05.96-1.38,1.42-2.93,1.53-4.58.09-1.31.11-2.63.12-3.95.04-3.43,1.47-6.09,4.37-7.93.56-.36,1.21-.59,1.83-.86.2-.08.29-.15.29-.38,0-1.11.49-1.94,1.49-2.44.25-.12.54-.17.81-.26h.56ZM14.99,25.36c2.39-.01,4.77-.14,7.12-.58.94-.17,1.88-.36,2.73-.81.53-.28.65-.54.4-1.08-.19-.42-.45-.81-.7-1.19-.49-.76-.88-1.56-1.14-2.43-.42-1.39-.58-2.81-.61-4.25-.02-1.03,0-2.06-.05-3.09-.06-1.43-.5-2.76-1.35-3.91-1.89-2.6-4.46-3.74-7.65-3.25-2.57.39-4.45,1.84-5.67,4.13-.62,1.15-.84,2.4-.86,3.7-.03,1.38-.04,2.77-.13,4.14-.13,1.85-.67,3.58-1.73,5.13-.2.29-.39.59-.55.9-.32.63-.21.94.42,1.26.77.39,1.61.57,2.44.73,2.42.47,4.88.61,7.34.62M12.79,26.64c.37.8,1.38,1.37,2.29,1.31.96-.06,1.9-.65,2.11-1.31h-4.4ZM16.27,3.38c.04-.49-.21-.95-.67-1.19-.49-.25-.97-.2-1.4.14-.35.27-.5.64-.48,1.05h2.55Z"/><rect class="cls-1" width="30" height="30"/></g></svg>