<?xml version="1.0" encoding="UTF-8"?><svg id="_圖層_2" xmlns="http://www.w3.org/2000/svg" viewBox="0 0 30 30"><defs><style>.cls-1{fill:none;}.cls-2{fill:#9684bb;}</style></defs><g id="_x30_1精選文章"><path class="cls-2" d="M15.81,1.96c.49.07.98.11,1.46.2,4.05.78,7.08,2.99,9.05,6.6,1.26,2.3,1.67,4.79,1.41,7.39-.54,5.33-4.59,9.89-9.82,11.08-2.29.52-4.57.46-6.8-.28-.47-.16-.88-.02-1.32.05-1.96.33-3.91.69-5.86,1.03-.28.05-.53-.02-.71-.24-.2-.24-.19-.51-.07-.79.58-1.35,1.16-2.69,1.75-4.04.07-.16.06-.27-.05-.41-1.03-1.33-1.77-2.81-2.21-4.44-.44-1.62-.55-3.27-.34-4.95.31-2.39,1.21-4.53,2.73-6.4,2.03-2.5,4.63-4.04,7.8-4.6.5-.09,1.01-.14,1.51-.2h1.48ZM4.92,26.41c.07,0,.12,0,.17,0,1.59-.28,3.18-.54,4.76-.84.61-.11,1.18-.12,1.79.08,2.26.74,4.55.73,6.81,0,5.59-1.81,8.86-7.4,7.74-13.17-1.18-6.07-7.23-10.14-13.33-8.91-3.7.75-6.43,2.85-8.11,6.23-1.37,2.74-1.51,5.61-.58,8.53.44,1.37,1.13,2.61,2.06,3.71.27.32.3.63.13,1.01-.36.79-.69,1.59-1.03,2.38-.14.32-.27.64-.41.97"/><path class="cls-2" d="M15.01,15.71c1.43,0,2.85,0,4.28,0,.54,0,.88.47.69.95-.1.25-.3.41-.58.44-.06,0-.12,0-.18,0-2.81,0-5.63,0-8.45,0-.32,0-.59-.09-.73-.4-.23-.47.1-.99.64-.99.9,0,1.8,0,2.7,0h1.63"/><path class="cls-2" d="M12.55,13.61c-.61,0-1.22,0-1.83,0-.53-.01-.85-.43-.72-.9.08-.29.33-.5.66-.5,1.26,0,2.53-.01,3.79,0,.4,0,.7.33.69.7,0,.39-.3.68-.73.69-.62.01-1.24,0-1.86,0"/><rect class="cls-1" width="30" height="30"/></g></svg>