<?xml version="1.0" encoding="UTF-8"?><svg id="_圖層_2" xmlns="http://www.w3.org/2000/svg" viewBox="0 0 30.56 30.56"><defs><style>.cls-1,.cls-2{fill:none;}.cls-2{stroke:#9684bb;stroke-miterlimit:10;}.cls-3{fill:#9684bb;}</style></defs><g id="_x30_1精選文章"><path class="cls-3" d="M15.37,17.3s.12-.13.25-.26c1.97-2.1,3.39-3.5,6.23-6.3.1-.09.32-.31.67-.38.18-.04.38-.03.59.03.47.14.77.46.88.93.11.48-.06.88-.4,1.22-1.73,1.72-3.45,3.45-5.17,5.17-.7.7-1.4,1.4-2.1,2.1-.65.65-1.35.65-2,0-2.44-2.44-4.88-4.87-7.31-7.31-.46-.46-.58-1-.33-1.52.38-.79,1.4-.96,2.05-.32,1,.98,1.98,1.98,2.97,2.97l3.43,3.43c.06.06.12.12.26.25"/><path class="cls-2" d="M7.1.5h16.36c3.64,0,6.6,2.96,6.6,6.6v16.36c0,3.64-2.96,6.6-6.6,6.6H7.1c-3.64,0-6.6-2.96-6.6-6.6V7.1C.5,3.46,3.46.5,7.1.5Z"/><rect class="cls-1" x=".28" y=".28" width="30" height="30"/></g></svg>