<?xml version="1.0" encoding="UTF-8"?><svg id="_圖層_2" xmlns="http://www.w3.org/2000/svg" viewBox="0 0 19 19"><defs><style>.cls-1{fill:#9684bb;}</style></defs><g id="_x30_1精選文章"><path class="cls-1" d="M18.25,19c-.15-.1-.31-.18-.43-.31-1.56-1.53-3.11-3.06-4.67-4.59-.04-.04-.08-.08-.13-.12-.05.04-.1.07-.15.11-1.03.78-2.19,1.3-3.46,1.51-1.91.32-3.72.04-5.4-.93-1.75-1.01-2.97-2.47-3.62-4.39-.19-.57-.31-1.15-.35-1.76,0-.05-.02-.09-.03-.14v-1.04c.05-.32.09-.63.14-.95.22-1.14.66-2.18,1.36-3.11C2.65,1.75,4.14.71,6,.26c2.6-.63,4.99-.12,7.07,1.56,1.67,1.34,2.64,3.12,2.86,5.26.19,1.87-.25,3.59-1.31,5.15-.21.31-.46.61-.72.96.05.03.11.06.16.11,1.56,1.53,3.12,3.07,4.68,4.6.27.27.34.56.16.81-.09.12-.25.2-.38.3h-.26ZM7.99,1.22c-.7,0-1.38.1-2.05.31-1.64.53-2.93,1.52-3.8,3.01-.89,1.51-1.13,3.14-.73,4.84.4,1.71,1.37,3.06,2.83,4.02,1.45.95,3.04,1.29,4.76,1.04,1.47-.21,2.74-.84,3.78-1.89,1.38-1.38,2.04-3.06,1.95-5.02-.06-1.24-.44-2.38-1.15-3.39-1.36-1.91-3.25-2.86-5.59-2.92"/></g></svg>